<mxfile host="app.diagrams.net" modified="2024-05-02T12:41:51.644Z" agent="Mozilla/5.0 (Windows NT 10.0; Win64; x64) AppleWebKit/537.36 (KHTML, like Gecko) Chrome/124.0.0.0 Safari/537.36" version="24.2.2" etag="fXDeSxPROBn-qFh-nEuT" type="github">
  <diagram name="Page-1" id="niidAJnvZgqHIcc6cwG6">
    <mxGraphModel>
      <root>
        <mxCell id="0" />
        <mxCell id="1" parent="0" />
      </root>
    </mxGraphModel>
  </diagram>
</mxfile>
